<svg width="32" height="32" viewBox="0 0 32 32" fill="none" xmlns="http://www.w3.org/2000/svg">
<g id="ben-custom">
<g id="Group">
<path id="Vector" d="M16.0344 16.2512L13.9125 14.1293C13.8575 14.0696 13.7907 14.022 13.7163 13.9894C13.6419 13.9568 13.5616 13.9399 13.4804 13.9399C13.3992 13.9399 13.3188 13.9568 13.2445 13.9894C13.1701 14.022 13.1033 14.0696 13.0482 14.1293L12.2098 14.9936C12.1525 15.0474 12.1069 15.1123 12.0757 15.1844C12.0444 15.2565 12.0283 15.3343 12.0283 15.4128C12.0283 15.4914 12.0444 15.5691 12.0757 15.6412C12.1069 15.7133 12.1525 15.7783 12.2098 15.832L15.209 18.775C15.318 18.8885 15.4489 18.9788 15.5937 19.0405C15.7385 19.1021 15.8943 19.1338 16.0517 19.1337C16.2085 19.134 16.3637 19.1023 16.5078 19.0407C16.652 18.979 16.782 18.8886 16.8901 18.775L22.9877 12.6514C23.0486 12.597 23.0974 12.5305 23.1307 12.456C23.1641 12.3815 23.1814 12.3008 23.1814 12.2192C23.1814 12.1376 23.1641 12.0569 23.1307 11.9824C23.0974 11.908 23.0486 11.8414 22.9877 11.7871L22.1494 10.9487C22.0952 10.8913 22.0299 10.8455 21.9575 10.8142C21.885 10.783 21.8069 10.7668 21.728 10.7668C21.6491 10.7668 21.571 10.783 21.4986 10.8142C21.4261 10.8455 21.3608 10.8913 21.3067 10.9487L16.0344 16.2512Z" fill="black"/>
<path id="Vector_2" d="M25.4985 17.7854C25.729 16.5573 25.729 15.297 25.4985 14.0689L27.4864 12.3835C27.8103 12.1093 28.03 11.732 28.1087 11.315C28.1873 10.8979 28.1202 10.4665 27.9186 10.0931L27.0543 8.58057C26.8939 8.31239 26.6656 8.09126 26.3924 7.93951C26.1193 7.78776 25.8109 7.71075 25.4985 7.71627C25.2896 7.71308 25.0827 7.75741 24.8935 7.84591L22.387 8.75344C21.4507 7.93379 20.3648 7.30281 19.1891 6.89518L18.7569 4.34547C18.6725 3.9462 18.4467 3.59083 18.1212 3.3447C17.7957 3.09857 17.3923 2.97823 16.9851 3.0058H15.2565C14.848 2.97161 14.4412 3.08943 14.1143 3.33666C13.7873 3.58388 13.5631 3.94312 13.4846 4.34547L13.0525 6.85196C11.8579 7.24653 10.7554 7.87862 9.81134 8.71022L7.26164 7.8027C7.06493 7.73892 6.8622 7.69548 6.65663 7.67305C6.34492 7.6714 6.03803 7.75006 5.76555 7.90144C5.49306 8.05282 5.26415 8.27183 5.10088 8.53736L4.23657 10.0499C4.0248 10.4208 3.95199 10.8549 4.03117 11.2746C4.11036 11.6943 4.33637 12.0721 4.66872 12.3403L6.65663 14.0257C6.5349 14.6375 6.47697 15.2602 6.48376 15.884C6.47495 16.5078 6.5329 17.1307 6.65663 17.7422L4.66872 19.4492C4.34486 19.7235 4.12516 20.1008 4.04647 20.5178C3.96779 20.9348 4.03491 21.3662 4.23657 21.7396L5.10088 23.2522C5.26125 23.5204 5.48953 23.7415 5.76269 23.8932C6.03584 24.045 6.3442 24.122 6.65663 24.1165C6.86552 24.1197 7.0724 24.0753 7.26164 23.9868L9.76813 23.0793C10.7044 23.899 11.7903 24.5299 12.9661 24.9376L13.3982 27.5305C13.4702 27.9463 13.6882 28.3227 14.013 28.5921C14.3378 28.8614 14.7481 29.006 15.17 28.9998H16.8987C17.325 28.9973 17.7367 28.8441 18.061 28.5673C18.3852 28.2905 18.6011 27.9079 18.6705 27.4873L19.1026 24.8944C20.3516 24.4719 21.4994 23.7951 22.4734 22.9065L24.8071 23.814C25.0185 23.8778 25.2356 23.9212 25.4553 23.9436C25.767 23.9453 26.0739 23.8666 26.3464 23.7152C26.6189 23.5639 26.8478 23.3448 27.011 23.0793L27.8321 21.6532C28.0631 21.3176 28.156 20.9059 28.0916 20.5037C28.0272 20.1014 27.8105 19.7393 27.4864 19.4924L25.4985 17.7854ZM24.0335 13.7491L22.0672 15.7197V16.0568C22.0722 17.3802 21.6384 18.6679 20.8337 19.7185C20.0291 20.7691 18.8989 21.5235 17.62 21.8635C16.3411 22.2036 14.9855 22.1102 13.7653 21.598C12.5451 21.0858 11.529 20.1836 10.876 19.0326C10.223 17.8816 9.9699 16.5466 10.1562 15.2364C10.3426 13.9262 10.9579 12.7147 11.9059 11.7914C12.854 10.8681 14.0813 10.285 15.3959 10.1333C16.7105 9.98164 18.0384 10.2699 19.1718 10.9531L20.2306 9.89864C20.4251 9.70148 20.6569 9.54492 20.9125 9.43807C21.1681 9.33121 21.4423 9.27619 21.7193 9.27619C21.9963 9.27619 22.2706 9.33121 22.5261 9.43807C22.7817 9.54492 23.0135 9.70148 23.2081 9.89864L24.0724 10.7629C24.2812 10.9717 24.444 11.2217 24.5504 11.4971C24.6568 11.7725 24.7045 12.067 24.6904 12.3619C24.6631 12.8929 24.427 13.3916 24.0335 13.7491Z" fill="black"/>
</g>
</g>
</svg>
