<svg width="32" height="32" viewBox="0 0 32 32" fill="none" xmlns="http://www.w3.org/2000/svg">
<g id="ben-variety">
<g id="Group">
<path id="Vector" d="M27.7327 10.4124C29.4225 10.2691 30.6756 8.78303 30.5318 7.09209C30.3885 5.40222 28.9019 4.14916 27.2121 4.29241C25.5222 4.43622 24.2697 5.92291 24.4136 7.61266C24.5568 9.30309 26.0422 10.5562 27.7327 10.4124Z" fill="black"/>
<path id="Vector_2" d="M26.9845 21.659L28.8933 14.5037C29.21 13.2971 28.4892 12.0615 27.282 11.7447C26.0755 11.4274 24.8399 12.1477 24.5225 13.3554V13.3542L22.8157 19.7275L17.8935 18.8977C16.8174 18.6287 15.725 19.2594 15.4199 20.3267L13.3376 28.667C13.0989 29.5009 13.5822 30.372 14.4172 30.6108C15.2529 30.8489 16.1234 30.3656 16.3627 29.5306L18.8247 23.3657L22.6551 24.3754C24.9289 25.0078 26.352 23.9329 26.9845 21.659Z" fill="black"/>
<path id="Vector_3" d="M24.261 28.9343L24.2534 28.9337C24.2523 28.9337 24.2517 28.9337 24.2505 28.9337L24.261 28.9343Z" fill="black"/>
<path id="Vector_4" d="M31.1468 17.8944C30.5155 17.707 29.8517 18.0662 29.6641 18.698L27.9219 24.5635C27.7909 24.9764 27.6384 25.2996 27.4753 25.5477C27.2261 25.9192 26.9751 26.1335 26.6094 26.3035C26.2443 26.47 25.7324 26.5772 25.0209 26.5766C24.8328 26.5771 24.6324 26.5695 24.4188 26.5544L21.0432 26.3442C20.3858 26.3029 19.8198 26.803 19.779 27.4605C19.7376 28.1179 20.2379 28.6839 20.8953 28.7247L24.2534 28.9337C24.5166 28.9523 24.7728 28.9617 25.0209 28.9622C25.6504 28.9617 26.2396 28.9005 26.7939 28.7567C27.6232 28.5447 28.3761 28.1237 28.9503 27.5134C29.5284 26.9049 29.9209 26.1456 30.1946 25.2878L30.1993 25.2745L31.9502 19.3768C32.1378 18.7452 31.7779 18.0813 31.1468 17.8944Z" fill="black"/>
<path id="Vector_5" d="M15.5609 5.07618L0 1.32849V2.27474V19.8515L15.5609 16.1039V5.07618ZM14.0702 14.9294L1.49069 17.9597V3.22099L14.0702 6.25012V14.9294Z" fill="black"/>
<path id="Vector_6" d="M12.8119 7.19934L2.99951 5.30859V15.8721L12.8119 13.9808V7.19934Z" fill="black"/>
</g>
</g>
</svg>
