<svg width="32" height="32" viewBox="0 0 32 32" fill="none" xmlns="http://www.w3.org/2000/svg">
<path d="M2.12786 17.377C2.0878 17.3448 2.03218 17.3399 1.98624 17.3624C1.94036 17.3868 1.91299 17.4356 1.91693 17.4874L2.11811 20.6466C2.12299 20.7023 2.0898 20.754 2.03705 20.7755L0.0829896 21.5518C0.0380521 21.5704 0.00680206 21.6114 0.000927063 21.6583C-0.00394794 21.7061 0.0175521 21.753 0.0566146 21.7803L5.30174 24.9629C5.33786 24.9883 5.38474 24.9932 5.4248 24.9756C5.4668 24.959 5.49611 24.9219 5.50393 24.8779L6.29399 20.3858C6.3028 20.3389 6.28424 20.292 6.24811 20.2618L2.12786 17.377Z" fill="black"/>
<path d="M29.9639 20.7753C29.9121 20.7538 29.8789 20.7021 29.8818 20.6464L30.0849 17.4872C30.0879 17.4355 30.0605 17.3867 30.0146 17.3622C29.9688 17.3398 29.9131 17.3447 29.873 17.3768L25.7529 20.2616C25.7168 20.2918 25.6982 20.3387 25.707 20.3856L26.498 24.8778C26.5048 24.9217 26.5341 24.9588 26.5751 24.9755C26.6171 24.993 26.663 24.9882 26.7001 24.9628L31.9443 21.7802C31.9843 21.7528 32.0048 21.7059 31.9989 21.6581C31.9941 21.6112 31.9628 21.5702 31.9189 21.5517L29.9639 20.7753Z" fill="black"/>
<path d="M16 24.5293C12.9736 24.5293 10.1083 23.8262 7.55565 22.5791L6.7334 27.251C9.58396 28.456 12.7158 29.123 16 29.123C19.2842 29.123 22.417 28.456 25.2676 27.251L24.4443 22.5791C21.8935 23.8262 19.0283 24.5293 16 24.5293Z" fill="black"/>
<path d="M4.6797 11.6641L5.08688 12.4873L5.99507 12.6191L5.33788 13.2598L5.4922 14.1651L4.6797 13.7373L3.8672 14.1651L4.02245 13.2598L3.36426 12.6191L4.27345 12.4873L4.6797 11.6641Z" fill="black"/>
<path d="M8.58595 5.16113L8.9922 5.98438L9.90132 6.1162L9.24313 6.75682L9.39845 7.66213L8.58595 7.23538L7.77245 7.66213L7.9287 6.75682L7.27051 6.1162L8.1797 5.98438L8.58595 5.16113Z" fill="black"/>
<path d="M27.3213 11.6641L26.9151 12.4873L26.0068 12.6191L26.6641 13.2598L26.5088 14.1651L27.3213 13.7373L28.1348 14.1651L27.9795 13.2598L28.6368 12.6191L27.7276 12.4873L27.3213 11.6641Z" fill="black"/>
<path d="M23.416 5.16113L23.0098 5.98438L22.1006 6.1162L22.7578 6.75682L22.6035 7.66213L23.416 7.23538L24.2285 7.66213L24.0732 6.75682L24.7314 6.1162L23.8223 5.98438L23.416 5.16113Z" fill="black"/>
<path d="M15.7188 2.87695L16.125 3.7002L17.0341 3.83302L16.3759 4.47364L16.5313 5.37895L15.7188 4.9512L14.9063 5.37895L15.0615 4.47364L14.4033 3.83302L15.3125 3.7002L15.7188 2.87695Z" fill="black"/>
<path d="M14.7558 8.07911C14.9648 7.65623 15.3944 7.38867 15.8651 7.38867C16.3368 7.38867 16.7675 7.65623 16.9755 8.07911L18.2069 10.5742C18.3876 10.9395 18.7363 11.1934 19.1386 11.252L21.8925 11.6514C22.3593 11.7198 22.747 12.046 22.8925 12.4942C23.038 12.9424 22.9169 13.4336 22.579 13.7627L20.5868 15.7051C20.2948 15.9893 20.162 16.3994 20.2304 16.8008L20.7011 19.544C20.7802 20.0079 20.5898 20.4766 20.2089 20.7539C19.8271 21.0313 19.3221 21.0674 18.9052 20.8477L16.4413 19.5527C16.0809 19.3633 15.6503 19.3633 15.2899 19.5527L12.8271 20.8477C12.4091 21.0674 11.9052 21.0313 11.5224 20.7539C11.1415 20.4765 10.9511 20.0078 11.0302 19.544L11.5009 16.8008C11.5702 16.3994 11.4364 15.9893 11.1454 15.7051L9.15219 13.7627C8.81525 13.4336 8.69419 12.9424 8.83969 12.4942C8.98519 12.0459 9.37288 11.7197 9.83869 11.6514L12.5926 11.252C12.995 11.1934 13.3446 10.9395 13.5243 10.5742L14.7558 8.07911Z" fill="black"/>
</svg>
