<svg width="24" height="24" viewBox="0 0 24 24" fill="none" xmlns="http://www.w3.org/2000/svg">
<g id="movie">
<path id="Vector" d="M17.1586 9.3586C12.5297 8.34376 16.3242 1.92423 9.98201 2.45626C3.63982 2.98829 -2.37424 17.5922 8.88513 21.0117C20.1445 24.4313 25.9476 11.2852 17.1586 9.3586Z" fill="#106AEF"/>
<path id="Vector_2" d="M16.8797 18.0234H11.25C11.1305 18.0234 11.032 17.9273 11.032 17.8055C11.032 17.6836 11.1281 17.5875 11.25 17.5875H16.8774C16.9969 17.5875 17.0953 17.6836 17.0953 17.8055C17.0953 17.9273 16.9992 18.0234 16.8797 18.0234Z" fill="#223050"/>
<path id="Vector_3" d="M11.25 18.0235C9.68904 18.0235 8.21951 17.4164 7.1156 16.3125C6.01169 15.2086 5.40466 13.7414 5.40466 12.1781C5.40466 10.6149 6.01169 9.15001 7.1156 8.04376C8.21951 6.93986 9.68669 6.33282 11.25 6.33282C12.8133 6.33282 14.2781 6.93986 15.3844 8.04376C16.4883 9.14767 17.0953 10.6149 17.0953 12.1781C17.0953 13.7414 16.4883 15.2063 15.3844 16.3125C14.2804 17.4164 12.8133 18.0235 11.25 18.0235Z" fill="white"/>
<path id="Vector_4" d="M11.25 6.55078C14.3578 6.55078 16.8774 9.07031 16.8774 12.1781C16.8774 15.2859 14.3602 17.8055 11.25 17.8055C8.14221 17.8055 5.62268 15.2859 5.62268 12.1781C5.62268 9.07031 8.14221 6.55078 11.25 6.55078ZM11.25 6.11484C10.4321 6.11484 9.63752 6.27421 8.88987 6.59062C8.16799 6.89531 7.51877 7.33359 6.96331 7.88906C6.40549 8.44687 5.96956 9.09374 5.66487 9.81562C5.34846 10.5633 5.18909 11.3578 5.18909 12.1758C5.18909 12.9937 5.34846 13.7883 5.66487 14.5359C5.96956 15.2578 6.40784 15.907 6.96331 16.4625C7.52112 17.0203 8.16799 17.4562 8.88987 17.7609C9.63752 18.0773 10.4321 18.2367 11.25 18.2367C12.068 18.2367 12.8625 18.0773 13.6102 17.7609C14.3321 17.4562 14.9813 17.018 15.5367 16.4625C16.0946 15.9047 16.5305 15.2578 16.8352 14.5359C17.1516 13.7883 17.311 12.9937 17.311 12.1758C17.311 11.3578 17.1516 10.5633 16.8352 9.81562C16.5305 9.09374 16.0922 8.44453 15.5367 7.88906C14.9789 7.33124 14.3321 6.89531 13.6102 6.59062C12.8625 6.27656 12.0703 6.11484 11.25 6.11484Z" fill="#223050"/>
<path id="Vector_5" d="M6.73358 12.4781C6.73358 13.138 6.86356 13.7914 7.11609 14.4011C7.36862 15.0108 7.73876 15.5647 8.20537 16.0313C8.67198 16.498 9.22594 16.8681 9.8356 17.1206C10.4453 17.3732 11.0987 17.5031 11.7586 17.5031C12.4185 17.5031 13.0719 17.3732 13.6816 17.1206C14.2912 16.8681 14.8452 16.498 15.3118 16.0313C15.7784 15.5647 16.1485 15.0108 16.4011 14.4011C16.6536 13.7914 16.7836 13.138 16.7836 12.4781C16.7836 11.1454 16.2542 9.86728 15.3118 8.92491C14.3694 7.98254 13.0913 7.45313 11.7586 7.45312C10.4259 7.45313 9.14774 7.98254 8.20537 8.92491C7.263 9.86728 6.73358 11.1454 6.73358 12.4781Z" fill="#47E9F3"/>
<path id="Vector_6" d="M9.93982 9.43827C9.93982 9.61032 9.97371 9.78069 10.0395 9.93964C10.1054 10.0986 10.2019 10.243 10.3236 10.3647C10.4452 10.4863 10.5896 10.5829 10.7486 10.6487C10.9076 10.7145 11.0779 10.7484 11.25 10.7484C11.422 10.7484 11.5924 10.7145 11.7514 10.6487C11.9103 10.5829 12.0547 10.4863 12.1764 10.3647C12.2981 10.243 12.3946 10.0986 12.4604 9.93964C12.5262 9.78069 12.5601 9.61032 12.5601 9.43827C12.5601 9.09079 12.4221 8.75755 12.1764 8.51185C11.9307 8.26615 11.5975 8.12811 11.25 8.12811C10.9025 8.12811 10.5693 8.26615 10.3236 8.51185C10.0779 8.75755 9.93982 9.09079 9.93982 9.43827Z" fill="white"/>
<path id="Vector_7" d="M11.25 8.34375C11.8547 8.34375 12.3445 8.83359 12.3445 9.43828C12.3445 10.043 11.8547 10.5328 11.25 10.5328C10.6453 10.5328 10.1555 10.043 10.1555 9.43828C10.1555 8.83359 10.6476 8.34375 11.25 8.34375ZM11.25 7.91016C10.4062 7.91016 9.72186 8.59688 9.72186 9.43828C9.72186 10.2797 10.4086 10.9664 11.25 10.9664C12.0937 10.9664 12.7781 10.2797 12.7781 9.43828C12.7781 8.59688 12.0937 7.91016 11.25 7.91016Z" fill="#223050"/>
<path id="Vector_8" d="M7.5838 13.1053C7.70546 13.2269 7.84989 13.3234 8.00885 13.3893C8.16781 13.4551 8.33818 13.489 8.51024 13.489C8.6823 13.489 8.85267 13.4552 9.01163 13.3893C9.1706 13.3235 9.31503 13.227 9.4367 13.1053C9.55836 12.9836 9.65487 12.8392 9.72071 12.6802C9.78655 12.5213 9.82044 12.3509 9.82043 12.1788C9.82043 12.0068 9.78653 11.8364 9.72068 11.6775C9.65483 11.5185 9.55831 11.3741 9.43664 11.2524C9.31499 11.1307 9.17056 11.0342 9.0116 10.9684C8.85264 10.9025 8.68227 10.8686 8.51021 10.8686C8.33815 10.8686 8.16777 10.9025 8.00881 10.9683C7.84985 11.0342 7.70541 11.1307 7.58375 11.2524C7.46208 11.374 7.36558 11.5185 7.29973 11.6774C7.23389 11.8364 7.20001 12.0068 7.20001 12.1788C7.20002 12.3509 7.23391 12.5212 7.29976 12.6802C7.36561 12.8392 7.46213 12.9836 7.5838 13.1053Z" fill="white"/>
<path id="Vector_9" d="M8.51018 11.0836C9.11487 11.0836 9.60471 11.5734 9.60471 12.1781C9.60471 12.7828 9.11487 13.2727 8.51018 13.2727C7.90549 13.2727 7.41565 12.7828 7.41565 12.1781C7.41799 11.5734 7.90784 11.0836 8.51018 11.0836ZM8.51018 10.65C7.66643 10.65 6.98206 11.3367 6.98206 12.1781C6.98206 13.0195 7.66877 13.7062 8.51018 13.7062C9.35393 13.7062 10.0383 13.0195 10.0383 12.1781C10.0383 11.3367 9.35393 10.65 8.51018 10.65Z" fill="#223050"/>
<path id="Vector_10" d="M11.25 16.2281C10.5281 16.2281 9.93982 15.6399 9.93982 14.918C9.93982 14.1961 10.5281 13.6078 11.25 13.6078C11.9719 13.6078 12.5601 14.1961 12.5601 14.918C12.5601 15.6399 11.9742 16.2281 11.25 16.2281Z" fill="white"/>
<path id="Vector_11" d="M11.25 13.8234C11.8547 13.8234 12.3445 14.3133 12.3445 14.918C12.3445 15.5226 11.8547 16.0125 11.25 16.0125C10.6453 16.0125 10.1555 15.5226 10.1555 14.918C10.1555 14.3133 10.6476 13.8234 11.25 13.8234ZM11.25 13.3898C10.4062 13.3898 9.72186 14.0766 9.72186 14.918C9.72186 15.7594 10.4086 16.4461 11.25 16.4461C12.0937 16.4461 12.7781 15.7594 12.7781 14.918C12.7781 14.0766 12.0937 13.3898 11.25 13.3898Z" fill="#223050"/>
<path id="Vector_12" d="M13.9922 13.4883C13.2703 13.4883 12.682 12.9 12.682 12.1781C12.682 11.4563 13.2703 10.868 13.9922 10.868C14.714 10.868 15.3023 11.4563 15.3023 12.1781C15.3023 12.9 14.714 13.4883 13.9922 13.4883Z" fill="white"/>
<path id="Vector_13" d="M13.9922 11.0836C14.5969 11.0836 15.0867 11.5734 15.0867 12.1781C15.0867 12.7828 14.5969 13.2727 13.9922 13.2727C13.3875 13.2727 12.8976 12.7828 12.8976 12.1781C12.8976 11.5734 13.3875 11.0836 13.9922 11.0836ZM13.9922 10.65C13.1484 10.65 12.4641 11.3367 12.4641 12.1781C12.4641 13.0195 13.1508 13.7062 13.9922 13.7062C14.8359 13.7062 15.5203 13.0195 15.5203 12.1781C15.5203 11.3367 14.8336 10.65 13.9922 10.65Z" fill="#223050"/>
<path id="Vector_14" d="M10.7438 12.1781C10.7438 12.2446 10.7569 12.3104 10.7823 12.3719C10.8078 12.4333 10.845 12.4891 10.8921 12.5361C10.9391 12.5831 10.9949 12.6204 11.0563 12.6458C11.1177 12.6713 11.1835 12.6844 11.25 12.6844C11.3165 12.6844 11.3823 12.6713 11.4438 12.6458C11.5052 12.6204 11.561 12.5831 11.608 12.5361C11.655 12.4891 11.6923 12.4333 11.7177 12.3719C11.7432 12.3104 11.7563 12.2446 11.7563 12.1781C11.7563 12.1116 11.7432 12.0458 11.7177 11.9844C11.6923 11.923 11.655 11.8672 11.608 11.8202C11.561 11.7731 11.5052 11.7359 11.4438 11.7104C11.3823 11.685 11.3165 11.6719 11.25 11.6719C11.1835 11.6719 11.1177 11.685 11.0563 11.7104C10.9949 11.7359 10.9391 11.7731 10.8921 11.8202C10.845 11.8672 10.8078 11.923 10.7823 11.9844C10.7569 12.0458 10.7438 12.1116 10.7438 12.1781Z" fill="#106AEF"/>
<path id="Vector_15" d="M11.25 11.6719C11.5289 11.6719 11.7562 11.8992 11.7562 12.1781C11.7562 12.457 11.5289 12.6844 11.25 12.6844C10.9711 12.6844 10.7437 12.457 10.7437 12.1781C10.7437 11.8992 10.9711 11.6719 11.25 11.6719ZM11.25 11.2383C10.732 11.2383 10.3078 11.6602 10.3078 12.1805C10.3078 12.6984 10.7297 13.1227 11.25 13.1227C11.768 13.1227 12.1922 12.7008 12.1922 12.1805C12.1922 11.6602 11.7703 11.2383 11.25 11.2383Z" fill="#223050"/>
</g>
</svg>
